<svg xmlns="http://www.w3.org/2000/svg" viewBox="0 0 512 512">
  <rect width="512" height="512" rx="80" fill="#111111"/>
  <!-- Flame shape -->
  <path d="
    M256,420
    C192,420 144,372 144,308
    C144,266 162,242 180,218
    C186,210 189,200 185,188
    C208,208 216,240 208,268
    C226,246 234,218 230,190
    C256,214 268,252 260,288
    C276,268 282,242 278,214
    C304,240 318,278 318,316
    C328,298 330,278 324,258
    C350,284 368,322 368,364
    C368,396 315,420 256,420Z
  " fill="#E8A838"/>
  <!-- Inner highlight -->
  <ellipse cx="256" cy="370" rx="44" ry="20" fill="#F5C96A" opacity="0.4"/>
</svg>
